# MagicaVoxel @ Ephtracy

# group
o 

# material
mtllib snake_body.mtl
usemtl palette

# normals
vn -1 0 0
vn 1 0 0
vn 0 0 1
vn 0 0 -1
vn 0 -1 0
vn 0 1 0

# texcoords
vt 0.623047 0.5
vt 0.654297 0.5
vt 0.748047 0.5
vt 0.779297 0.5

# verts
v -0.3 0.1 0.4
v -0.3 0.1 0.3
v -0.3 0.1 0.2
v -0.3 0.1 0.1
v -0.3 0.1 0
v -0.3 0.1 -0.1
v -0.3 0.1 -0.2
v -0.3 0.1 -0.3
v -0.3 0.1 -0.4
v -0.3 0.2 0.4
v -0.3 0.2 0.3
v -0.3 0.2 0.2
v -0.3 0.2 0.1
v -0.3 0.2 0
v -0.3 0.2 -0.1
v -0.3 0.2 -0.2
v -0.3 0.2 -0.3
v -0.3 0.2 -0.4
v -0.3 0.3 0.4
v -0.3 0.3 0.3
v -0.3 0.3 0.2
v -0.3 0.3 0.1
v -0.3 0.3 0
v -0.3 0.3 -0.1
v -0.3 0.3 -0.2
v -0.3 0.3 -0.3
v -0.3 0.3 -0.4
v -0.3 0.4 0.4
v -0.3 0.4 0.3
v -0.3 0.4 0.2
v -0.3 0.4 0.1
v -0.3 0.4 0
v -0.3 0.4 -0.1
v -0.3 0.4 -0.2
v -0.3 0.4 -0.3
v -0.3 0.4 -0.4
v -0.2 0 0.4
v -0.2 0 -0.4
v -0.2 0.1 0.5
v -0.2 0.1 0.4
v -0.2 0.1 0.3
v -0.2 0.1 0.2
v -0.2 0.1 0.1
v -0.2 0.1 0
v -0.2 0.1 -0.1
v -0.2 0.1 -0.2
v -0.2 0.1 -0.3
v -0.2 0.1 -0.4
v -0.2 0.1 -0.5
v -0.2 0.2 0.5
v -0.2 0.2 0.4
v -0.2 0.2 -0.4
v -0.2 0.2 -0.5
v -0.2 0.3 0.5
v -0.2 0.3 0.4
v -0.2 0.3 -0.4
v -0.2 0.3 -0.5
v -0.2 0.4 0.5
v -0.2 0.4 0.4
v -0.2 0.4 0.3
v -0.2 0.4 0.2
v -0.2 0.4 0.1
v -0.2 0.4 0
v -0.2 0.4 -0.1
v -0.2 0.4 -0.2
v -0.2 0.4 -0.3
v -0.2 0.4 -0.4
v -0.2 0.4 -0.5
v -0.2 0.5 0.4
v -0.2 0.5 0.3
v -0.2 0.5 0.2
v -0.2 0.5 0.1
v -0.2 0.5 0
v -0.2 0.5 -0.1
v -0.2 0.5 -0.2
v -0.2 0.5 -0.3
v -0.2 0.5 -0.4
v 0.2 0 0.4
v 0.2 0 -0.4
v 0.2 0.1 0.5
v 0.2 0.1 0.4
v 0.2 0.1 0.3
v 0.2 0.1 0.2
v 0.2 0.1 0.1
v 0.2 0.1 0
v 0.2 0.1 -0.1
v 0.2 0.1 -0.2
v 0.2 0.1 -0.3
v 0.2 0.1 -0.4
v 0.2 0.1 -0.5
v 0.2 0.2 0.5
v 0.2 0.2 0.4
v 0.2 0.2 -0.4
v 0.2 0.2 -0.5
v 0.2 0.3 0.5
v 0.2 0.3 0.4
v 0.2 0.3 -0.4
v 0.2 0.3 -0.5
v 0.2 0.4 0.5
v 0.2 0.4 0.4
v 0.2 0.4 0.3
v 0.2 0.4 0.2
v 0.2 0.4 0.1
v 0.2 0.4 0
v 0.2 0.4 -0.1
v 0.2 0.4 -0.2
v 0.2 0.4 -0.3
v 0.2 0.4 -0.4
v 0.2 0.4 -0.5
v 0.2 0.5 0.4
v 0.2 0.5 0.3
v 0.2 0.5 0.2
v 0.2 0.5 0.1
v 0.2 0.5 0
v 0.2 0.5 -0.1
v 0.2 0.5 -0.2
v 0.2 0.5 -0.3
v 0.2 0.5 -0.4
v 0.3 0.1 0.4
v 0.3 0.1 0.3
v 0.3 0.1 0.2
v 0.3 0.1 0.1
v 0.3 0.1 0
v 0.3 0.1 -0.1
v 0.3 0.1 -0.2
v 0.3 0.1 -0.3
v 0.3 0.1 -0.4
v 0.3 0.2 0.4
v 0.3 0.2 0.3
v 0.3 0.2 0.2
v 0.3 0.2 0.1
v 0.3 0.2 0
v 0.3 0.2 -0.1
v 0.3 0.2 -0.2
v 0.3 0.2 -0.3
v 0.3 0.2 -0.4
v 0.3 0.3 0.4
v 0.3 0.3 0.3
v 0.3 0.3 0.2
v 0.3 0.3 0.1
v 0.3 0.3 0
v 0.3 0.3 -0.1
v 0.3 0.3 -0.2
v 0.3 0.3 -0.3
v 0.3 0.3 -0.4
v 0.3 0.4 0.4
v 0.3 0.4 0.3
v 0.3 0.4 0.2
v 0.3 0.4 0.1
v 0.3 0.4 0
v 0.3 0.4 -0.1
v 0.3 0.4 -0.2
v 0.3 0.4 -0.3
v 0.3 0.4 -0.4
v -0.2 0.1 0.5
v -0.2 0.2 0.5
v -0.2 0.3 0.5
v -0.2 0.4 0.5
v -0.1 0.1 0.5
v -0.1 0.2 0.5
v -0.1 0.3 0.5
v -0.1 0.4 0.5
v 0 0.3 0.5
v 0 0.4 0.5
v 0.1 0.1 0.5
v 0.1 0.2 0.5
v 0.1 0.3 0.5
v 0.1 0.4 0.5
v 0.2 0.1 0.5
v 0.2 0.2 0.5
v 0.2 0.3 0.5
v 0.2 0.4 0.5
v -0.3 0.1 0.4
v -0.3 0.2 0.4
v -0.3 0.3 0.4
v -0.3 0.4 0.4
v -0.2 0 0.4
v -0.2 0.1 0.4
v -0.2 0.2 0.4
v -0.2 0.3 0.4
v -0.2 0.4 0.4
v -0.2 0.5 0.4
v -0.1 0.1 0.4
v -0.1 0.4 0.4
v -0.1 0.5 0.4
v 0 0.4 0.4
v 0.1 0.1 0.4
v 0.1 0.4 0.4
v 0.1 0.5 0.4
v 0.2 0 0.4
v 0.2 0.1 0.4
v 0.2 0.2 0.4
v 0.2 0.3 0.4
v 0.2 0.4 0.4
v 0.2 0.5 0.4
v 0.3 0.1 0.4
v 0.3 0.2 0.4
v 0.3 0.3 0.4
v 0.3 0.4 0.4
v -0.3 0.1 -0.4
v -0.3 0.2 -0.4
v -0.3 0.3 -0.4
v -0.3 0.4 -0.4
v -0.2 0 -0.4
v -0.2 0.1 -0.4
v -0.2 0.2 -0.4
v -0.2 0.3 -0.4
v -0.2 0.4 -0.4
v -0.2 0.5 -0.4
v -0.1 0.1 -0.4
v -0.1 0.4 -0.4
v -0.1 0.5 -0.4
v 0 0.4 -0.4
v 0.1 0.1 -0.4
v 0.1 0.4 -0.4
v 0.1 0.5 -0.4
v 0.2 0 -0.4
v 0.2 0.1 -0.4
v 0.2 0.2 -0.4
v 0.2 0.3 -0.4
v 0.2 0.4 -0.4
v 0.2 0.5 -0.4
v 0.3 0.1 -0.4
v 0.3 0.2 -0.4
v 0.3 0.3 -0.4
v 0.3 0.4 -0.4
v -0.2 0.1 -0.5
v -0.2 0.2 -0.5
v -0.2 0.3 -0.5
v -0.2 0.4 -0.5
v -0.1 0.1 -0.5
v -0.1 0.2 -0.5
v -0.1 0.3 -0.5
v -0.1 0.4 -0.5
v 0 0.3 -0.5
v 0 0.4 -0.5
v 0.1 0.1 -0.5
v 0.1 0.2 -0.5
v 0.1 0.3 -0.5
v 0.1 0.4 -0.5
v 0.2 0.1 -0.5
v 0.2 0.2 -0.5
v 0.2 0.3 -0.5
v 0.2 0.4 -0.5
v -0.2 0 0.4
v 0.2 0 0.4
v -0.2 0 -0.4
v 0.2 0 -0.4
v -0.2 0.1 0.5
v -0.1 0.1 0.5
v 0.1 0.1 0.5
v 0.2 0.1 0.5
v -0.3 0.1 0.4
v -0.2 0.1 0.4
v -0.1 0.1 0.4
v 0.1 0.1 0.4
v 0.2 0.1 0.4
v 0.3 0.1 0.4
v -0.3 0.1 0.3
v -0.2 0.1 0.3
v 0.2 0.1 0.3
v 0.3 0.1 0.3
v -0.3 0.1 0.2
v -0.2 0.1 0.2
v 0.2 0.1 0.2
v 0.3 0.1 0.2
v -0.3 0.1 0.1
v -0.2 0.1 0.1
v 0.2 0.1 0.1
v 0.3 0.1 0.1
v -0.3 0.1 0
v -0.2 0.1 0
v 0.2 0.1 0
v 0.3 0.1 0
v -0.3 0.1 -0.1
v -0.2 0.1 -0.1
v 0.2 0.1 -0.1
v 0.3 0.1 -0.1
v -0.3 0.1 -0.2
v -0.2 0.1 -0.2
v 0.2 0.1 -0.2
v 0.3 0.1 -0.2
v -0.3 0.1 -0.3
v -0.2 0.1 -0.3
v 0.2 0.1 -0.3
v 0.3 0.1 -0.3
v -0.3 0.1 -0.4
v -0.2 0.1 -0.4
v -0.1 0.1 -0.4
v 0.1 0.1 -0.4
v 0.2 0.1 -0.4
v 0.3 0.1 -0.4
v -0.2 0.1 -0.5
v -0.1 0.1 -0.5
v 0.1 0.1 -0.5
v 0.2 0.1 -0.5
v -0.2 0.4 0.5
v -0.1 0.4 0.5
v 0 0.4 0.5
v 0.1 0.4 0.5
v 0.2 0.4 0.5
v -0.3 0.4 0.4
v -0.2 0.4 0.4
v -0.1 0.4 0.4
v 0 0.4 0.4
v 0.1 0.4 0.4
v 0.2 0.4 0.4
v 0.3 0.4 0.4
v -0.3 0.4 0.3
v -0.2 0.4 0.3
v 0.2 0.4 0.3
v 0.3 0.4 0.3
v -0.3 0.4 0.2
v -0.2 0.4 0.2
v 0.2 0.4 0.2
v 0.3 0.4 0.2
v -0.3 0.4 0.1
v -0.2 0.4 0.1
v 0.2 0.4 0.1
v 0.3 0.4 0.1
v -0.3 0.4 0
v -0.2 0.4 0
v 0.2 0.4 0
v 0.3 0.4 0
v -0.3 0.4 -0.1
v -0.2 0.4 -0.1
v 0.2 0.4 -0.1
v 0.3 0.4 -0.1
v -0.3 0.4 -0.2
v -0.2 0.4 -0.2
v 0.2 0.4 -0.2
v 0.3 0.4 -0.2
v -0.3 0.4 -0.3
v -0.2 0.4 -0.3
v 0.2 0.4 -0.3
v 0.3 0.4 -0.3
v -0.3 0.4 -0.4
v -0.2 0.4 -0.4
v -0.1 0.4 -0.4
v 0 0.4 -0.4
v 0.1 0.4 -0.4
v 0.2 0.4 -0.4
v 0.3 0.4 -0.4
v -0.2 0.4 -0.5
v -0.1 0.4 -0.5
v 0 0.4 -0.5
v 0.1 0.4 -0.5
v 0.2 0.4 -0.5
v -0.2 0.5 0.4
v -0.1 0.5 0.4
v 0.1 0.5 0.4
v 0.2 0.5 0.4
v -0.2 0.5 0.3
v -0.1 0.5 0.3
v 0.1 0.5 0.3
v 0.2 0.5 0.3
v -0.2 0.5 0.2
v -0.1 0.5 0.2
v 0.1 0.5 0.2
v 0.2 0.5 0.2
v -0.2 0.5 0.1
v -0.1 0.5 0.1
v 0.1 0.5 0.1
v 0.2 0.5 0.1
v -0.2 0.5 0
v -0.1 0.5 0
v 0.1 0.5 0
v 0.2 0.5 0
v -0.2 0.5 -0.1
v -0.1 0.5 -0.1
v 0.1 0.5 -0.1
v 0.2 0.5 -0.1
v -0.2 0.5 -0.2
v -0.1 0.5 -0.2
v 0.1 0.5 -0.2
v 0.2 0.5 -0.2
v -0.2 0.5 -0.3
v -0.1 0.5 -0.3
v 0.1 0.5 -0.3
v 0.2 0.5 -0.3
v -0.2 0.5 -0.4
v -0.1 0.5 -0.4
v 0.1 0.5 -0.4
v 0.2 0.5 -0.4

# faces
f 10/4/1 2/4/1 1/4/1
f 11/3/1 3/3/1 2/3/1
f 11/4/1 2/4/1 10/4/1
f 12/4/1 4/4/1 3/4/1
f 12/3/1 3/3/1 11/3/1
f 13/3/1 5/3/1 4/3/1
f 13/4/1 4/4/1 12/4/1
f 14/4/1 6/4/1 5/4/1
f 14/3/1 5/3/1 13/3/1
f 15/3/1 7/3/1 6/3/1
f 15/4/1 6/4/1 14/4/1
f 16/4/1 8/4/1 7/4/1
f 16/3/1 7/3/1 15/3/1
f 17/3/1 9/3/1 8/3/1
f 17/4/1 8/4/1 16/4/1
f 18/3/1 9/3/1 17/3/1
f 19/3/1 11/3/1 10/3/1
f 20/4/1 12/4/1 11/4/1
f 20/3/1 11/3/1 19/3/1
f 21/3/1 13/3/1 12/3/1
f 21/4/1 12/4/1 20/4/1
f 22/4/1 14/4/1 13/4/1
f 22/3/1 13/3/1 21/3/1
f 23/3/1 15/3/1 14/3/1
f 23/4/1 14/4/1 22/4/1
f 24/4/1 16/4/1 15/4/1
f 24/3/1 15/3/1 23/3/1
f 25/3/1 17/3/1 16/3/1
f 25/4/1 16/4/1 24/4/1
f 26/4/1 18/4/1 17/4/1
f 26/3/1 17/3/1 25/3/1
f 27/4/1 18/4/1 26/4/1
f 28/4/1 20/4/1 19/4/1
f 29/3/1 21/3/1 20/3/1
f 29/4/1 20/4/1 28/4/1
f 30/4/1 22/4/1 21/4/1
f 30/3/1 21/3/1 29/3/1
f 31/3/1 23/3/1 22/3/1
f 31/4/1 22/4/1 30/4/1
f 32/4/1 24/4/1 23/4/1
f 32/3/1 23/3/1 31/3/1
f 33/3/1 25/3/1 24/3/1
f 33/4/1 24/4/1 32/4/1
f 34/4/1 26/4/1 25/4/1
f 34/3/1 25/3/1 33/3/1
f 35/3/1 27/3/1 26/3/1
f 35/4/1 26/4/1 34/4/1
f 36/3/1 27/3/1 35/3/1
f 40/2/1 38/2/1 37/2/1
f 41/2/1 38/2/1 40/2/1
f 42/2/1 38/2/1 41/2/1
f 43/2/1 38/2/1 42/2/1
f 44/2/1 38/2/1 43/2/1
f 45/2/1 38/2/1 44/2/1
f 46/2/1 38/2/1 45/2/1
f 47/2/1 38/2/1 46/2/1
f 48/2/1 38/2/1 47/2/1
f 50/4/1 40/4/1 39/4/1
f 51/4/1 40/4/1 50/4/1
f 52/3/1 49/3/1 48/3/1
f 53/3/1 49/3/1 52/3/1
f 54/3/1 51/3/1 50/3/1
f 55/3/1 51/3/1 54/3/1
f 56/4/1 53/4/1 52/4/1
f 57/4/1 53/4/1 56/4/1
f 58/4/1 55/4/1 54/4/1
f 59/4/1 55/4/1 58/4/1
f 67/3/1 57/3/1 56/3/1
f 68/3/1 57/3/1 67/3/1
f 69/3/1 60/3/1 59/3/1
f 70/4/1 61/4/1 60/4/1
f 70/3/1 60/3/1 69/3/1
f 71/3/1 62/3/1 61/3/1
f 71/4/1 61/4/1 70/4/1
f 72/4/1 63/4/1 62/4/1
f 72/3/1 62/3/1 71/3/1
f 73/3/1 64/3/1 63/3/1
f 73/4/1 63/4/1 72/4/1
f 74/4/1 65/4/1 64/4/1
f 74/3/1 64/3/1 73/3/1
f 75/3/1 66/3/1 65/3/1
f 75/4/1 65/4/1 74/4/1
f 76/4/1 67/4/1 66/4/1
f 76/3/1 66/3/1 75/3/1
f 77/4/1 67/4/1 76/4/1
f 78/2/2 79/2/2 81/2/2
f 81/2/2 79/2/2 82/2/2
f 82/2/2 79/2/2 83/2/2
f 83/2/2 79/2/2 84/2/2
f 84/2/2 79/2/2 85/2/2
f 85/2/2 79/2/2 86/2/2
f 86/2/2 79/2/2 87/2/2
f 87/2/2 79/2/2 88/2/2
f 88/2/2 79/2/2 89/2/2
f 80/3/2 81/3/2 91/3/2
f 91/3/2 81/3/2 92/3/2
f 89/4/2 90/4/2 93/4/2
f 93/4/2 90/4/2 94/4/2
f 91/4/2 92/4/2 95/4/2
f 95/4/2 92/4/2 96/4/2
f 93/3/2 94/3/2 97/3/2
f 97/3/2 94/3/2 98/3/2
f 95/3/2 96/3/2 99/3/2
f 99/3/2 96/3/2 100/3/2
f 97/4/2 98/4/2 108/4/2
f 108/4/2 98/4/2 109/4/2
f 100/4/2 101/4/2 110/4/2
f 101/3/2 102/3/2 111/3/2
f 110/4/2 101/4/2 111/4/2
f 102/4/2 103/4/2 112/4/2
f 111/3/2 102/3/2 112/3/2
f 103/3/2 104/3/2 113/3/2
f 112/4/2 103/4/2 113/4/2
f 104/4/2 105/4/2 114/4/2
f 113/3/2 104/3/2 114/3/2
f 105/3/2 106/3/2 115/3/2
f 114/4/2 105/4/2 115/4/2
f 106/4/2 107/4/2 116/4/2
f 115/3/2 106/3/2 116/3/2
f 107/3/2 108/3/2 117/3/2
f 116/4/2 107/4/2 117/4/2
f 117/3/2 108/3/2 118/3/2
f 119/3/2 120/3/2 128/3/2
f 120/4/2 121/4/2 129/4/2
f 128/3/2 120/3/2 129/3/2
f 121/3/2 122/3/2 130/3/2
f 129/4/2 121/4/2 130/4/2
f 122/4/2 123/4/2 131/4/2
f 130/3/2 122/3/2 131/3/2
f 123/3/2 124/3/2 132/3/2
f 131/4/2 123/4/2 132/4/2
f 124/4/2 125/4/2 133/4/2
f 132/3/2 124/3/2 133/3/2
f 125/3/2 126/3/2 134/3/2
f 133/4/2 125/4/2 134/4/2
f 126/4/2 127/4/2 135/4/2
f 134/3/2 126/3/2 135/3/2
f 135/4/2 127/4/2 136/4/2
f 128/4/2 129/4/2 137/4/2
f 129/3/2 130/3/2 138/3/2
f 137/4/2 129/4/2 138/4/2
f 130/4/2 131/4/2 139/4/2
f 138/3/2 130/3/2 139/3/2
f 131/3/2 132/3/2 140/3/2
f 139/4/2 131/4/2 140/4/2
f 132/4/2 133/4/2 141/4/2
f 140/3/2 132/3/2 141/3/2
f 133/3/2 134/3/2 142/3/2
f 141/4/2 133/4/2 142/4/2
f 134/4/2 135/4/2 143/4/2
f 142/3/2 134/3/2 143/3/2
f 135/3/2 136/3/2 144/3/2
f 143/4/2 135/4/2 144/4/2
f 144/3/2 136/3/2 145/3/2
f 137/3/2 138/3/2 146/3/2
f 138/4/2 139/4/2 147/4/2
f 146/3/2 138/3/2 147/3/2
f 139/3/2 140/3/2 148/3/2
f 147/4/2 139/4/2 148/4/2
f 140/4/2 141/4/2 149/4/2
f 148/3/2 140/3/2 149/3/2
f 141/3/2 142/3/2 150/3/2
f 149/4/2 141/4/2 150/4/2
f 142/4/2 143/4/2 151/4/2
f 150/3/2 142/3/2 151/3/2
f 143/3/2 144/3/2 152/3/2
f 151/4/2 143/4/2 152/4/2
f 144/4/2 145/4/2 153/4/2
f 152/3/2 144/3/2 153/3/2
f 153/4/2 145/4/2 154/4/2
f 159/4/3 156/4/3 155/4/3
f 160/3/3 157/3/3 156/3/3
f 160/4/3 156/4/3 159/4/3
f 161/4/3 158/4/3 157/4/3
f 161/3/3 157/3/3 160/3/3
f 162/4/3 158/4/3 161/4/3
f 163/1/3 161/1/3 160/1/3
f 163/3/3 162/3/3 161/3/3
f 164/3/3 162/3/3 163/3/3
f 165/2/3 160/2/3 159/2/3
f 166/1/3 163/1/3 160/1/3
f 166/2/3 160/2/3 165/2/3
f 167/4/3 164/4/3 163/4/3
f 167/1/3 163/1/3 166/1/3
f 168/4/3 164/4/3 167/4/3
f 169/3/3 166/3/3 165/3/3
f 170/4/3 167/4/3 166/4/3
f 170/3/3 166/3/3 169/3/3
f 171/3/3 168/3/3 167/3/3
f 171/4/3 167/4/3 170/4/3
f 172/3/3 168/3/3 171/3/3
f 178/4/3 174/4/3 173/4/3
f 179/3/3 175/3/3 174/3/3
f 179/4/3 174/4/3 178/4/3
f 180/4/3 176/4/3 175/4/3
f 180/3/3 175/3/3 179/3/3
f 181/4/3 176/4/3 180/4/3
f 183/2/3 178/2/3 177/2/3
f 184/3/3 182/3/3 181/3/3
f 185/3/3 182/3/3 184/3/3
f 186/2/3 185/2/3 184/2/3
f 187/2/3 183/2/3 177/2/3
f 188/2/3 185/2/3 186/2/3
f 189/2/3 185/2/3 188/2/3
f 190/2/3 187/2/3 177/2/3
f 191/2/3 187/2/3 190/2/3
f 194/4/3 189/4/3 188/4/3
f 195/4/3 189/4/3 194/4/3
f 196/3/3 192/3/3 191/3/3
f 197/4/3 193/4/3 192/4/3
f 197/3/3 192/3/3 196/3/3
f 198/3/3 194/3/3 193/3/3
f 198/4/3 193/4/3 197/4/3
f 199/3/3 194/3/3 198/3/3
f 200/3/4 201/3/4 205/3/4
f 201/4/4 202/4/4 206/4/4
f 205/3/4 201/3/4 206/3/4
f 202/3/4 203/3/4 207/3/4
f 206/4/4 202/4/4 207/4/4
f 207/3/4 203/3/4 208/3/4
f 204/2/4 205/2/4 210/2/4
f 208/4/4 209/4/4 211/4/4
f 211/4/4 209/4/4 212/4/4
f 211/1/4 212/1/4 213/1/4
f 204/2/4 210/2/4 214/2/4
f 213/1/4 212/1/4 215/1/4
f 215/1/4 212/1/4 216/1/4
f 204/2/4 214/2/4 217/2/4
f 217/2/4 214/2/4 218/2/4
f 215/3/4 216/3/4 221/3/4
f 221/3/4 216/3/4 222/3/4
f 218/4/4 219/4/4 223/4/4
f 219/3/4 220/3/4 224/3/4
f 223/4/4 219/4/4 224/4/4
f 220/4/4 221/4/4 225/4/4
f 224/3/4 220/3/4 225/3/4
f 225/4/4 221/4/4 226/4/4
f 227/3/4 228/3/4 231/3/4
f 228/4/4 229/4/4 232/4/4
f 231/3/4 228/3/4 232/3/4
f 229/3/4 230/3/4 233/3/4
f 232/4/4 229/4/4 233/4/4
f 233/3/4 230/3/4 234/3/4
f 232/2/4 233/2/4 235/2/4
f 233/4/4 234/4/4 235/4/4
f 235/4/4 234/4/4 236/4/4
f 231/1/4 232/1/4 237/1/4
f 232/2/4 235/2/4 238/2/4
f 237/1/4 232/1/4 238/1/4
f 235/3/4 236/3/4 239/3/4
f 238/2/4 235/2/4 239/2/4
f 239/3/4 236/3/4 240/3/4
f 237/4/4 238/4/4 241/4/4
f 238/3/4 239/3/4 242/3/4
f 241/4/4 238/4/4 242/4/4
f 239/4/4 240/4/4 243/4/4
f 242/3/4 239/3/4 243/3/4
f 243/4/4 240/4/4 244/4/4
f 247/2/5 246/2/5 245/2/5
f 248/2/5 246/2/5 247/2/5
f 254/4/5 250/4/5 249/4/5
f 255/2/5 251/2/5 250/2/5
f 255/4/5 250/4/5 254/4/5
f 256/3/5 252/3/5 251/3/5
f 256/2/5 251/2/5 255/2/5
f 257/3/5 252/3/5 256/3/5
f 259/4/5 254/4/5 253/4/5
f 260/4/5 254/4/5 259/4/5
f 261/3/5 258/3/5 257/3/5
f 262/3/5 258/3/5 261/3/5
f 263/3/5 260/3/5 259/3/5
f 264/3/5 260/3/5 263/3/5
f 265/4/5 262/4/5 261/4/5
f 266/4/5 262/4/5 265/4/5
f 267/4/5 264/4/5 263/4/5
f 268/4/5 264/4/5 267/4/5
f 269/3/5 266/3/5 265/3/5
f 270/3/5 266/3/5 269/3/5
f 271/3/5 268/3/5 267/3/5
f 272/3/5 268/3/5 271/3/5
f 273/4/5 270/4/5 269/4/5
f 274/4/5 270/4/5 273/4/5
f 275/4/5 272/4/5 271/4/5
f 276/4/5 272/4/5 275/4/5
f 277/3/5 274/3/5 273/3/5
f 278/3/5 274/3/5 277/3/5
f 279/3/5 276/3/5 275/3/5
f 280/3/5 276/3/5 279/3/5
f 281/4/5 278/4/5 277/4/5
f 282/4/5 278/4/5 281/4/5
f 283/4/5 280/4/5 279/4/5
f 284/4/5 280/4/5 283/4/5
f 285/3/5 282/3/5 281/3/5
f 286/3/5 282/3/5 285/3/5
f 287/3/5 284/3/5 283/3/5
f 288/3/5 284/3/5 287/3/5
f 291/4/5 286/4/5 285/4/5
f 292/4/5 286/4/5 291/4/5
f 293/3/5 289/3/5 288/3/5
f 294/1/5 290/1/5 289/1/5
f 294/3/5 289/3/5 293/3/5
f 295/4/5 291/4/5 290/4/5
f 295/1/5 290/1/5 294/1/5
f 296/4/5 291/4/5 295/4/5
f 297/4/6 298/4/6 303/4/6
f 298/3/6 299/3/6 304/3/6
f 303/4/6 298/4/6 304/4/6
f 299/4/6 300/4/6 305/4/6
f 304/3/6 299/3/6 305/3/6
f 300/3/6 301/3/6 306/3/6
f 305/4/6 300/4/6 306/4/6
f 306/3/6 301/3/6 307/3/6
f 302/4/6 303/4/6 309/4/6
f 309/4/6 303/4/6 310/4/6
f 307/3/6 308/3/6 311/3/6
f 311/3/6 308/3/6 312/3/6
f 309/3/6 310/3/6 313/3/6
f 313/3/6 310/3/6 314/3/6
f 311/4/6 312/4/6 315/4/6
f 315/4/6 312/4/6 316/4/6
f 313/4/6 314/4/6 317/4/6
f 317/4/6 314/4/6 318/4/6
f 315/3/6 316/3/6 319/3/6
f 319/3/6 316/3/6 320/3/6
f 317/3/6 318/3/6 321/3/6
f 321/3/6 318/3/6 322/3/6
f 319/4/6 320/4/6 323/4/6
f 323/4/6 320/4/6 324/4/6
f 321/4/6 322/4/6 325/4/6
f 325/4/6 322/4/6 326/4/6
f 323/3/6 324/3/6 327/3/6
f 327/3/6 324/3/6 328/3/6
f 325/3/6 326/3/6 329/3/6
f 329/3/6 326/3/6 330/3/6
f 327/4/6 328/4/6 331/4/6
f 331/4/6 328/4/6 332/4/6
f 329/4/6 330/4/6 333/4/6
f 333/4/6 330/4/6 334/4/6
f 331/3/6 332/3/6 335/3/6
f 335/3/6 332/3/6 336/3/6
f 333/3/6 334/3/6 337/3/6
f 337/3/6 334/3/6 338/3/6
f 335/4/6 336/4/6 342/4/6
f 342/4/6 336/4/6 343/4/6
f 338/3/6 339/3/6 344/3/6
f 339/4/6 340/4/6 345/4/6
f 344/3/6 339/3/6 345/3/6
f 340/3/6 341/3/6 346/3/6
f 345/4/6 340/4/6 346/4/6
f 341/4/6 342/4/6 347/4/6
f 346/3/6 341/3/6 347/3/6
f 347/4/6 342/4/6 348/4/6
f 349/3/6 350/3/6 353/3/6
f 350/2/6 351/2/6 354/2/6
f 353/3/6 350/3/6 354/3/6
f 351/4/6 352/4/6 355/4/6
f 354/2/6 351/2/6 355/2/6
f 355/4/6 352/4/6 356/4/6
f 353/4/6 354/4/6 357/4/6
f 354/1/6 355/1/6 358/1/6
f 357/4/6 354/4/6 358/4/6
f 355/3/6 356/3/6 359/3/6
f 358/1/6 355/1/6 359/1/6
f 359/3/6 356/3/6 360/3/6
f 357/3/6 358/3/6 361/3/6
f 358/2/6 359/2/6 362/2/6
f 361/3/6 358/3/6 362/3/6
f 359/4/6 360/4/6 363/4/6
f 362/2/6 359/2/6 363/2/6
f 363/4/6 360/4/6 364/4/6
f 361/4/6 362/4/6 365/4/6
f 362/1/6 363/1/6 366/1/6
f 365/4/6 362/4/6 366/4/6
f 363/3/6 364/3/6 367/3/6
f 366/1/6 363/1/6 367/1/6
f 367/3/6 364/3/6 368/3/6
f 365/3/6 366/3/6 369/3/6
f 366/2/6 367/2/6 370/2/6
f 369/3/6 366/3/6 370/3/6
f 367/4/6 368/4/6 371/4/6
f 370/2/6 367/2/6 371/2/6
f 371/4/6 368/4/6 372/4/6
f 369/4/6 370/4/6 373/4/6
f 370/1/6 371/1/6 374/1/6
f 373/4/6 370/4/6 374/4/6
f 371/3/6 372/3/6 375/3/6
f 374/1/6 371/1/6 375/1/6
f 375/3/6 372/3/6 376/3/6
f 373/3/6 374/3/6 377/3/6
f 374/2/6 375/2/6 378/2/6
f 377/3/6 374/3/6 378/3/6
f 375/4/6 376/4/6 379/4/6
f 378/2/6 375/2/6 379/2/6
f 379/4/6 376/4/6 380/4/6
f 377/4/6 378/4/6 381/4/6
f 378/1/6 379/1/6 382/1/6
f 381/4/6 378/4/6 382/4/6
f 379/3/6 380/3/6 383/3/6
f 382/1/6 379/1/6 383/1/6
f 383/3/6 380/3/6 384/3/6
