# MagicaVoxel @ Ephtracy

# group
o 

# material
mtllib snake_head.mtl
usemtl palette

# normals
vn -1 0 0
vn 1 0 0
vn 0 0 1
vn 0 0 -1
vn 0 -1 0
vn 0 1 0

# texcoords
vt 0.685547 0.5
vt 0.748047 0.5
vt 0.779297 0.5
vt 0.810547 0.5
vt 0.841797 0.5
vt 0.873047 0.5
vt 0.904297 0.5
vt 0.935547 0.5

# verts
v -0.4 0.2 0
v -0.4 0.2 -0.1
v -0.4 0.2 -0.2
v -0.4 0.2 -0.3
v -0.4 0.4 0
v -0.4 0.4 -0.1
v -0.4 0.4 -0.2
v -0.4 0.4 -0.3
v -0.4 0.5 -0.1
v -0.4 0.5 -0.2
v -0.3 0.1 -0.2
v -0.3 0.1 -0.3
v -0.3 0.1 -0.4
v -0.3 0.2 0.4
v -0.3 0.2 0.3
v -0.3 0.2 0.2
v -0.3 0.2 0.1
v -0.3 0.2 0
v -0.3 0.2 -0.2
v -0.3 0.2 -0.3
v -0.3 0.2 -0.4
v -0.3 0.2 -0.5
v -0.3 0.3 0.4
v -0.3 0.3 0.3
v -0.3 0.3 0.2
v -0.3 0.3 0.1
v -0.3 0.3 0
v -0.3 0.3 -0.3
v -0.3 0.3 -0.4
v -0.3 0.4 0.4
v -0.3 0.4 0.3
v -0.3 0.4 0.2
v -0.3 0.4 0.1
v -0.3 0.4 0
v -0.3 0.4 -0.2
v -0.3 0.4 -0.3
v -0.3 0.4 -0.4
v -0.3 0.4 -0.5
v -0.3 0.5 -0.1
v -0.3 0.5 -0.2
v -0.3 0.5 -0.3
v -0.3 0.5 -0.4
v -0.3 0.6 -0.1
v -0.3 0.6 -0.2
v -0.2 0.1 0.5
v -0.2 0.1 0.4
v -0.2 0.1 -0.2
v -0.2 0.2 0.5
v -0.2 0.2 0.4
v -0.2 0.2 0.3
v -0.2 0.2 0.2
v -0.2 0.2 0.1
v -0.2 0.2 -0.2
v -0.2 0.3 0.4
v -0.2 0.4 0.5
v -0.2 0.4 0.4
v -0.1 0 0.5
v -0.1 0 0.4
v -0.1 0.1 0.5
v -0.1 0.1 0.4
v -0.1 0.1 -0.4
v -0.1 0.1 -0.5
v -0.1 0.2 -0.4
v -0.1 0.2 -0.5
v -0.1 0.4 0.4
v -0.1 0.4 0.3
v -0.1 0.4 0.2
v -0.1 0.4 0.1
v -0.1 0.4 0
v -0.1 0.4 -0.1
v -0.1 0.4 -0.4
v -0.1 0.4 -0.5
v -0.1 0.5 0.4
v -0.1 0.5 0.3
v -0.1 0.5 0.2
v -0.1 0.5 0.1
v -0.1 0.5 0
v -0.1 0.5 -0.1
v -0.1 0.5 -0.4
v -0.1 0.5 -0.5
v 0.1 0.5 -0.1
v 0.1 0.5 -0.2
v 0.1 0.6 -0.1
v 0.1 0.6 -0.2
v -0.1 0.5 -0.1
v -0.1 0.5 -0.2
v -0.1 0.6 -0.1
v -0.1 0.6 -0.2
v 0.1 0 0.5
v 0.1 0 0.4
v 0.1 0.1 0.5
v 0.1 0.1 0.4
v 0.1 0.1 -0.4
v 0.1 0.1 -0.5
v 0.1 0.2 -0.4
v 0.1 0.2 -0.5
v 0.1 0.4 0.4
v 0.1 0.4 0.3
v 0.1 0.4 0.2
v 0.1 0.4 0.1
v 0.1 0.4 0
v 0.1 0.4 -0.1
v 0.1 0.4 -0.4
v 0.1 0.4 -0.5
v 0.1 0.5 0.4
v 0.1 0.5 0.3
v 0.1 0.5 0.2
v 0.1 0.5 0.1
v 0.1 0.5 0
v 0.1 0.5 -0.1
v 0.1 0.5 -0.4
v 0.1 0.5 -0.5
v 0.2 0.1 0.5
v 0.2 0.1 0.4
v 0.2 0.1 -0.2
v 0.2 0.2 0.5
v 0.2 0.2 0.4
v 0.2 0.2 0.3
v 0.2 0.2 0.2
v 0.2 0.2 0.1
v 0.2 0.2 0
v 0.2 0.2 -0.2
v 0.2 0.3 0.4
v 0.2 0.4 0.5
v 0.2 0.4 0.4
v 0.3 0.1 -0.2
v 0.3 0.1 -0.4
v 0.3 0.2 0.4
v 0.3 0.2 0.3
v 0.3 0.2 0.2
v 0.3 0.2 0.1
v 0.3 0.2 0
v 0.3 0.2 -0.2
v 0.3 0.2 -0.3
v 0.3 0.2 -0.4
v 0.3 0.2 -0.5
v 0.3 0.3 0.4
v 0.3 0.3 0.3
v 0.3 0.3 0.2
v 0.3 0.3 0.1
v 0.3 0.3 0
v 0.3 0.3 -0.3
v 0.3 0.3 -0.4
v 0.3 0.4 0.4
v 0.3 0.4 0.3
v 0.3 0.4 0.2
v 0.3 0.4 0.1
v 0.3 0.4 0
v 0.3 0.4 -0.2
v 0.3 0.4 -0.3
v 0.3 0.4 -0.4
v 0.3 0.4 -0.5
v 0.3 0.5 -0.1
v 0.3 0.5 -0.2
v 0.3 0.5 -0.3
v 0.3 0.5 -0.4
v 0.3 0.6 -0.1
v 0.3 0.6 -0.2
v 0.4 0.2 0
v 0.4 0.2 -0.1
v 0.4 0.2 -0.2
v 0.4 0.2 -0.3
v 0.4 0.4 0
v 0.4 0.4 -0.1
v 0.4 0.4 -0.2
v 0.4 0.4 -0.3
v 0.4 0.5 -0.1
v 0.4 0.5 -0.2
v -0.2 0.1 0.5
v -0.2 0.2 0.5
v -0.2 0.4 0.5
v -0.1 0 0.5
v -0.1 0.1 0.5
v -0.1 0.2 0.5
v 0.1 0 0.5
v 0.1 0.1 0.5
v 0.1 0.2 0.5
v 0.2 0.1 0.5
v 0.2 0.2 0.5
v 0.2 0.4 0.5
v -0.3 0.2 0.4
v -0.3 0.3 0.4
v -0.3 0.4 0.4
v -0.2 0.2 0.4
v -0.2 0.3 0.4
v -0.2 0.4 0.4
v -0.1 0.4 0.4
v -0.1 0.5 0.4
v 0.1 0.4 0.4
v 0.1 0.5 0.4
v 0.2 0.2 0.4
v 0.2 0.3 0.4
v 0.2 0.4 0.4
v 0.3 0.2 0.4
v 0.3 0.3 0.4
v 0.3 0.4 0.4
v -0.4 0.2 0
v -0.4 0.4 0
v -0.3 0.2 0
v -0.3 0.3 0
v -0.3 0.4 0
v 0.3 0.2 0
v 0.3 0.3 0
v 0.3 0.4 0
v 0.4 0.2 0
v 0.4 0.4 0
v -0.4 0.4 -0.1
v -0.4 0.5 -0.1
v -0.3 0.4 -0.1
v -0.3 0.5 -0.1
v -0.3 0.6 -0.1
v -0.2 0.4 -0.1
v -0.2 0.5 -0.1
v -0.2 0.6 -0.1
v -0.1 0.4 -0.1
v -0.1 0.5 -0.1
v -0.1 0.6 -0.1
v 0.1 0.4 -0.1
v 0.1 0.5 -0.1
v 0.1 0.6 -0.1
v 0.2 0.4 -0.1
v 0.2 0.5 -0.1
v 0.2 0.6 -0.1
v 0.3 0.4 -0.1
v 0.3 0.5 -0.1
v 0.3 0.6 -0.1
v 0.4 0.4 -0.1
v 0.4 0.5 -0.1
v -0.3 0.1 -0.2
v -0.3 0.2 -0.2
v -0.2 0.1 -0.2
v -0.2 0.2 -0.2
v 0.2 0.1 -0.2
v 0.2 0.2 -0.2
v 0.3 0.1 -0.2
v 0.3 0.2 -0.2
v -0.1 0 0.4
v -0.1 0.1 0.4
v 0.1 0 0.4
v 0.1 0.1 0.4
v -0.4 0.4 -0.2
v -0.4 0.5 -0.2
v -0.3 0.4 -0.2
v -0.3 0.5 -0.2
v -0.3 0.6 -0.2
v -0.2 0.5 -0.2
v -0.2 0.6 -0.2
v -0.1 0.5 -0.2
v -0.1 0.6 -0.2
v 0.1 0.5 -0.2
v 0.1 0.6 -0.2
v 0.2 0.5 -0.2
v 0.2 0.6 -0.2
v 0.3 0.4 -0.2
v 0.3 0.5 -0.2
v 0.3 0.6 -0.2
v 0.4 0.4 -0.2
v 0.4 0.5 -0.2
v -0.4 0.2 -0.3
v -0.4 0.4 -0.3
v -0.3 0.2 -0.3
v -0.3 0.3 -0.3
v -0.3 0.4 -0.3
v 0.3 0.2 -0.3
v 0.3 0.3 -0.3
v 0.3 0.4 -0.3
v 0.4 0.2 -0.3
v 0.4 0.4 -0.3
v -0.3 0.1 -0.4
v -0.3 0.2 -0.4
v -0.3 0.4 -0.4
v -0.3 0.5 -0.4
v -0.2 0.4 -0.4
v -0.2 0.5 -0.4
v -0.1 0.1 -0.4
v -0.1 0.2 -0.4
v -0.1 0.4 -0.4
v -0.1 0.5 -0.4
v 0.1 0.1 -0.4
v 0.1 0.2 -0.4
v 0.1 0.4 -0.4
v 0.1 0.5 -0.4
v 0.2 0.4 -0.4
v 0.2 0.5 -0.4
v 0.3 0.1 -0.4
v 0.3 0.2 -0.4
v 0.3 0.4 -0.4
v 0.3 0.5 -0.4
v -0.3 0.2 -0.5
v -0.3 0.4 -0.5
v -0.1 0.1 -0.5
v -0.1 0.2 -0.5
v -0.1 0.4 -0.5
v -0.1 0.5 -0.5
v 0.1 0.1 -0.5
v 0.1 0.2 -0.5
v 0.1 0.4 -0.5
v 0.1 0.5 -0.5
v 0.3 0.2 -0.5
v 0.3 0.4 -0.5
v -0.1 0 0.5
v 0.1 0 0.5
v -0.1 0 0.4
v 0.1 0 0.4
v -0.2 0.1 0.5
v -0.1 0.1 0.5
v 0.1 0.1 0.5
v 0.2 0.1 0.5
v -0.2 0.1 0.4
v -0.1 0.1 0.4
v 0.1 0.1 0.4
v 0.2 0.1 0.4
v -0.3 0.1 -0.2
v -0.2 0.1 -0.2
v 0.2 0.1 -0.2
v 0.3 0.1 -0.2
v -0.3 0.1 -0.3
v -0.2 0.1 -0.3
v -0.3 0.1 -0.4
v -0.1 0.1 -0.4
v 0.1 0.1 -0.4
v 0.3 0.1 -0.4
v -0.1 0.1 -0.5
v 0.1 0.1 -0.5
v -0.3 0.2 0.4
v -0.2 0.2 0.4
v 0.2 0.2 0.4
v 0.3 0.2 0.4
v -0.3 0.2 0.3
v -0.2 0.2 0.3
v 0.2 0.2 0.3
v 0.3 0.2 0.3
v -0.3 0.2 0.2
v -0.2 0.2 0.2
v 0.2 0.2 0.2
v 0.3 0.2 0.2
v -0.3 0.2 0.1
v -0.2 0.2 0.1
v 0.2 0.2 0.1
v 0.3 0.2 0.1
v -0.4 0.2 0
v -0.3 0.2 0
v 0.2 0.2 0
v 0.3 0.2 0
v 0.4 0.2 0
v -0.4 0.2 -0.1
v -0.3 0.2 -0.1
v 0.3 0.2 -0.1
v 0.4 0.2 -0.1
v -0.4 0.2 -0.2
v -0.3 0.2 -0.2
v -0.2 0.2 -0.2
v 0.2 0.2 -0.2
v 0.3 0.2 -0.2
v 0.4 0.2 -0.2
v -0.4 0.2 -0.3
v -0.3 0.2 -0.3
v 0.3 0.2 -0.3
v 0.4 0.2 -0.3
v -0.3 0.2 -0.4
v -0.1 0.2 -0.4
v 0.1 0.2 -0.4
v 0.3 0.2 -0.4
v -0.3 0.2 -0.5
v -0.1 0.2 -0.5
v 0.1 0.2 -0.5
v 0.3 0.2 -0.5
v -0.2 0.4 0.5
v 0.2 0.4 0.5
v -0.3 0.4 0.4
v -0.2 0.4 0.4
v -0.1 0.4 0.4
v 0.1 0.4 0.4
v 0.2 0.4 0.4
v 0.3 0.4 0.4
v -0.3 0.4 0.3
v -0.2 0.4 0.3
v -0.1 0.4 0.3
v 0.1 0.4 0.3
v 0.2 0.4 0.3
v 0.3 0.4 0.3
v -0.3 0.4 0.2
v -0.2 0.4 0.2
v -0.1 0.4 0.2
v 0.1 0.4 0.2
v 0.2 0.4 0.2
v 0.3 0.4 0.2
v -0.3 0.4 0.1
v -0.2 0.4 0.1
v -0.1 0.4 0.1
v 0.1 0.4 0.1
v 0.2 0.4 0.1
v 0.3 0.4 0.1
v -0.4 0.4 0
v -0.3 0.4 0
v -0.2 0.4 0
v -0.1 0.4 0
v 0.1 0.4 0
v 0.2 0.4 0
v 0.3 0.4 0
v 0.4 0.4 0
v -0.4 0.4 -0.1
v -0.3 0.4 -0.1
v -0.2 0.4 -0.1
v -0.1 0.4 -0.1
v 0.1 0.4 -0.1
v 0.2 0.4 -0.1
v 0.3 0.4 -0.1
v 0.4 0.4 -0.1
v -0.4 0.4 -0.2
v -0.3 0.4 -0.2
v 0.3 0.4 -0.2
v 0.4 0.4 -0.2
v -0.4 0.4 -0.3
v -0.3 0.4 -0.3
v 0.3 0.4 -0.3
v 0.4 0.4 -0.3
v -0.3 0.4 -0.4
v -0.2 0.4 -0.4
v -0.1 0.4 -0.4
v 0.1 0.4 -0.4
v 0.2 0.4 -0.4
v 0.3 0.4 -0.4
v -0.3 0.4 -0.5
v -0.1 0.4 -0.5
v 0.1 0.4 -0.5
v 0.3 0.4 -0.5
v -0.1 0.5 0.4
v 0.1 0.5 0.4
v -0.1 0.5 0.3
v 0.1 0.5 0.3
v -0.1 0.5 0.2
v 0.1 0.5 0.2
v -0.1 0.5 0.1
v 0.1 0.5 0.1
v -0.1 0.5 0
v 0.1 0.5 0
v -0.4 0.5 -0.1
v -0.3 0.5 -0.1
v -0.1 0.5 -0.1
v 0.1 0.5 -0.1
v 0.3 0.5 -0.1
v 0.4 0.5 -0.1
v -0.4 0.5 -0.2
v -0.3 0.5 -0.2
v -0.2 0.5 -0.2
v -0.1 0.5 -0.2
v 0.1 0.5 -0.2
v 0.2 0.5 -0.2
v 0.3 0.5 -0.2
v 0.4 0.5 -0.2
v -0.3 0.5 -0.3
v -0.2 0.5 -0.3
v -0.1 0.5 -0.3
v 0.1 0.5 -0.3
v 0.2 0.5 -0.3
v 0.3 0.5 -0.3
v -0.3 0.5 -0.4
v -0.2 0.5 -0.4
v -0.1 0.5 -0.4
v 0.1 0.5 -0.4
v 0.2 0.5 -0.4
v 0.3 0.5 -0.4
v -0.1 0.5 -0.5
v 0.1 0.5 -0.5
v -0.3 0.6 -0.1
v -0.2 0.6 -0.1
v -0.1 0.6 -0.1
v 0.1 0.6 -0.1
v 0.2 0.6 -0.1
v 0.3 0.6 -0.1
v -0.3 0.6 -0.2
v -0.2 0.6 -0.2
v -0.1 0.6 -0.2
v 0.1 0.6 -0.2
v 0.2 0.6 -0.2
v 0.3 0.6 -0.2

# faces
f 5/3/1 2/3/1 1/3/1
f 6/4/1 3/4/1 2/4/1
f 6/3/1 2/3/1 5/3/1
f 7/3/1 4/3/1 3/3/1
f 7/4/1 3/4/1 6/4/1
f 8/3/1 4/3/1 7/3/1
f 9/2/1 7/2/1 6/2/1
f 10/2/1 7/2/1 9/2/1
f 19/2/1 12/2/1 11/2/1
f 20/8/1 13/8/1 12/8/1
f 20/2/1 12/2/1 19/2/1
f 21/8/1 13/8/1 20/8/1
f 23/2/1 15/2/1 14/2/1
f 24/8/1 16/8/1 15/8/1
f 24/2/1 15/2/1 23/2/1
f 25/2/1 17/2/1 16/2/1
f 25/8/1 16/8/1 24/8/1
f 26/8/1 18/8/1 17/8/1
f 26/2/1 17/2/1 25/2/1
f 27/8/1 18/8/1 26/8/1
f 28/2/1 22/2/1 21/2/1
f 28/2/1 21/2/1 20/2/1
f 29/2/1 22/2/1 28/2/1
f 30/8/1 24/8/1 23/8/1
f 31/2/1 25/2/1 24/2/1
f 31/8/1 24/8/1 30/8/1
f 32/8/1 26/8/1 25/8/1
f 32/2/1 25/2/1 31/2/1
f 33/2/1 27/2/1 26/2/1
f 33/8/1 26/8/1 32/8/1
f 34/2/1 27/2/1 33/2/1
f 36/8/1 29/8/1 28/8/1
f 37/2/1 22/2/1 29/2/1
f 37/8/1 29/8/1 36/8/1
f 38/2/1 22/2/1 37/2/1
f 40/8/1 36/8/1 35/8/1
f 41/2/1 37/2/1 36/2/1
f 41/8/1 36/8/1 40/8/1
f 42/2/1 37/2/1 41/2/1
f 43/1/1 40/1/1 39/1/1
f 44/1/1 40/1/1 43/1/1
f 48/6/1 46/6/1 45/6/1
f 49/8/1 47/8/1 46/8/1
f 49/6/1 46/6/1 48/6/1
f 50/8/1 47/8/1 49/8/1
f 51/8/1 47/8/1 50/8/1
f 52/8/1 47/8/1 51/8/1
f 53/8/1 47/8/1 52/8/1
f 54/2/1 49/2/1 48/2/1
f 55/2/1 54/2/1 48/2/1
f 56/2/1 54/2/1 55/2/1
f 59/7/1 58/7/1 57/7/1
f 60/7/1 58/7/1 59/7/1
f 63/2/1 62/2/1 61/2/1
f 64/2/1 62/2/1 63/2/1
f 73/3/1 66/3/1 65/3/1
f 74/4/1 67/4/1 66/4/1
f 74/3/1 66/3/1 73/3/1
f 75/3/1 68/3/1 67/3/1
f 75/4/1 67/4/1 74/4/1
f 76/4/1 69/4/1 68/4/1
f 76/3/1 68/3/1 75/3/1
f 77/3/1 70/3/1 69/3/1
f 77/4/1 69/4/1 76/4/1
f 78/3/1 70/3/1 77/3/1
f 79/3/1 72/3/1 71/3/1
f 80/3/1 72/3/1 79/3/1
f 83/5/1 82/5/1 81/5/1
f 84/5/1 82/5/1 83/5/1
f 85/5/2 86/5/2 87/5/2
f 87/5/2 86/5/2 88/5/2
f 89/7/2 90/7/2 91/7/2
f 91/7/2 90/7/2 92/7/2
f 93/2/2 94/2/2 95/2/2
f 95/2/2 94/2/2 96/2/2
f 97/3/2 98/3/2 105/3/2
f 98/4/2 99/4/2 106/4/2
f 105/3/2 98/3/2 106/3/2
f 99/3/2 100/3/2 107/3/2
f 106/4/2 99/4/2 107/4/2
f 100/4/2 101/4/2 108/4/2
f 107/3/2 100/3/2 108/3/2
f 101/3/2 102/3/2 109/3/2
f 108/4/2 101/4/2 109/4/2
f 109/3/2 102/3/2 110/3/2
f 103/3/2 104/3/2 111/3/2
f 111/3/2 104/3/2 112/3/2
f 113/6/2 114/6/2 116/6/2
f 114/8/2 115/8/2 117/8/2
f 116/6/2 114/6/2 117/6/2
f 117/8/2 115/8/2 118/8/2
f 118/8/2 115/8/2 119/8/2
f 119/8/2 115/8/2 120/8/2
f 120/8/2 115/8/2 121/8/2
f 121/8/2 115/8/2 122/8/2
f 116/2/2 117/2/2 123/2/2
f 116/2/2 123/2/2 124/2/2
f 124/2/2 123/2/2 125/2/2
f 126/8/2 127/8/2 133/8/2
f 133/8/2 127/8/2 134/8/2
f 134/8/2 127/8/2 135/8/2
f 128/8/2 129/8/2 137/8/2
f 129/2/2 130/2/2 138/2/2
f 137/8/2 129/8/2 138/8/2
f 130/8/2 131/8/2 139/8/2
f 138/2/2 130/2/2 139/2/2
f 131/2/2 132/2/2 140/2/2
f 139/8/2 131/8/2 140/8/2
f 140/2/2 132/2/2 141/2/2
f 135/2/2 136/2/2 142/2/2
f 134/2/2 135/2/2 142/2/2
f 142/2/2 136/2/2 143/2/2
f 137/2/2 138/2/2 144/2/2
f 138/8/2 139/8/2 145/8/2
f 144/2/2 138/2/2 145/2/2
f 139/2/2 140/2/2 146/2/2
f 145/8/2 139/8/2 146/8/2
f 140/8/2 141/8/2 147/8/2
f 146/2/2 140/2/2 147/2/2
f 147/8/2 141/8/2 148/8/2
f 142/8/2 143/8/2 150/8/2
f 143/2/2 136/2/2 151/2/2
f 150/8/2 143/8/2 151/8/2
f 151/2/2 136/2/2 152/2/2
f 149/8/2 150/8/2 154/8/2
f 150/2/2 151/2/2 155/2/2
f 154/8/2 150/8/2 155/8/2
f 155/2/2 151/2/2 156/2/2
f 153/1/2 154/1/2 157/1/2
f 157/1/2 154/1/2 158/1/2
f 159/3/2 160/3/2 163/3/2
f 160/4/2 161/4/2 164/4/2
f 163/3/2 160/3/2 164/3/2
f 161/3/2 162/3/2 165/3/2
f 164/4/2 161/4/2 165/4/2
f 165/3/2 162/3/2 166/3/2
f 164/2/2 165/2/2 167/2/2
f 167/2/2 165/2/2 168/2/2
f 173/6/3 170/6/3 169/6/3
f 174/2/3 171/2/3 170/2/3
f 174/6/3 170/6/3 173/6/3
f 175/7/3 173/7/3 172/7/3
f 175/7/3 174/7/3 173/7/3
f 176/7/3 174/7/3 175/7/3
f 177/2/3 171/2/3 174/2/3
f 177/7/3 174/7/3 176/7/3
f 178/6/3 177/6/3 176/6/3
f 179/2/3 171/2/3 177/2/3
f 179/6/3 177/6/3 178/6/3
f 180/2/3 171/2/3 179/2/3
f 184/2/3 182/2/3 181/2/3
f 185/8/3 183/8/3 182/8/3
f 185/2/3 182/2/3 184/2/3
f 186/8/3 183/8/3 185/8/3
f 189/3/3 188/3/3 187/3/3
f 190/3/3 188/3/3 189/3/3
f 194/8/3 192/8/3 191/8/3
f 195/2/3 193/2/3 192/2/3
f 195/8/3 192/8/3 194/8/3
f 196/2/3 193/2/3 195/2/3
f 199/3/3 198/3/3 197/3/3
f 200/3/3 198/3/3 199/3/3
f 201/3/3 198/3/3 200/3/3
f 205/3/3 203/3/3 202/3/3
f 205/3/3 204/3/3 203/3/3
f 206/3/3 204/3/3 205/3/3
f 209/2/3 208/2/3 207/2/3
f 210/2/3 208/2/3 209/2/3
f 212/5/3 210/5/3 209/5/3
f 213/1/3 211/1/3 210/1/3
f 213/5/3 210/5/3 212/5/3
f 214/1/3 211/1/3 213/1/3
f 215/5/3 213/5/3 212/5/3
f 215/5/3 214/5/3 213/5/3
f 216/5/3 214/5/3 215/5/3
f 217/5/3 214/5/3 216/5/3
f 221/5/3 219/5/3 218/5/3
f 221/5/3 220/5/3 219/5/3
f 222/5/3 220/5/3 221/5/3
f 223/5/3 220/5/3 222/5/3
f 224/5/3 222/5/3 221/5/3
f 225/1/3 223/1/3 222/1/3
f 225/5/3 222/5/3 224/5/3
f 226/1/3 223/1/3 225/1/3
f 227/2/3 225/2/3 224/2/3
f 228/2/3 225/2/3 227/2/3
f 231/2/3 230/2/3 229/2/3
f 232/2/3 230/2/3 231/2/3
f 235/8/3 234/8/3 233/8/3
f 236/8/3 234/8/3 235/8/3
f 237/7/4 238/7/4 239/7/4
f 239/7/4 238/7/4 240/7/4
f 241/2/4 242/2/4 243/2/4
f 243/2/4 242/2/4 244/2/4
f 244/1/4 245/1/4 246/1/4
f 246/1/4 245/1/4 247/1/4
f 246/5/4 247/5/4 248/5/4
f 248/5/4 247/5/4 249/5/4
f 250/5/4 251/5/4 252/5/4
f 252/5/4 251/5/4 253/5/4
f 252/1/4 253/1/4 255/1/4
f 255/1/4 253/1/4 256/1/4
f 254/2/4 255/2/4 257/2/4
f 257/2/4 255/2/4 258/2/4
f 259/3/4 260/3/4 261/3/4
f 261/3/4 260/3/4 262/3/4
f 262/3/4 260/3/4 263/3/4
f 264/3/4 265/3/4 267/3/4
f 265/3/4 266/3/4 267/3/4
f 267/3/4 266/3/4 268/3/4
f 271/2/4 272/2/4 273/2/4
f 273/2/4 272/2/4 274/2/4
f 269/8/4 270/8/4 275/8/4
f 275/8/4 270/8/4 276/8/4
f 273/8/4 274/8/4 277/8/4
f 277/8/4 274/8/4 278/8/4
f 281/8/4 282/8/4 283/8/4
f 283/8/4 282/8/4 284/8/4
f 279/8/4 280/8/4 285/8/4
f 285/8/4 280/8/4 286/8/4
f 283/2/4 284/2/4 287/2/4
f 287/2/4 284/2/4 288/2/4
f 289/2/4 290/2/4 292/2/4
f 292/2/4 290/2/4 293/2/4
f 291/2/4 292/2/4 295/2/4
f 292/2/4 293/2/4 295/2/4
f 295/2/4 293/2/4 296/2/4
f 293/3/4 294/3/4 297/3/4
f 296/2/4 293/2/4 297/2/4
f 297/3/4 294/3/4 298/3/4
f 296/2/4 297/2/4 299/2/4
f 299/2/4 297/2/4 300/2/4
f 303/7/5 302/7/5 301/7/5
f 304/7/5 302/7/5 303/7/5
f 309/6/5 306/6/5 305/6/5
f 310/6/5 306/6/5 309/6/5
f 311/6/5 308/6/5 307/6/5
f 312/6/5 308/6/5 311/6/5
f 314/8/5 310/8/5 309/8/5
f 314/8/5 311/8/5 310/8/5
f 314/8/5 312/8/5 311/8/5
f 315/8/5 312/8/5 314/8/5
f 317/2/5 314/2/5 313/2/5
f 318/8/5 315/8/5 314/8/5
f 318/2/5 314/2/5 317/2/5
f 318/8/5 316/8/5 315/8/5
f 319/8/5 318/8/5 317/8/5
f 320/8/5 316/8/5 318/8/5
f 320/8/5 318/8/5 319/8/5
f 321/8/5 316/8/5 320/8/5
f 322/8/5 316/8/5 321/8/5
f 323/2/5 321/2/5 320/2/5
f 324/2/5 321/2/5 323/2/5
f 329/2/5 326/2/5 325/2/5
f 330/2/5 326/2/5 329/2/5
f 331/8/5 328/8/5 327/8/5
f 332/8/5 328/8/5 331/8/5
f 333/8/5 330/8/5 329/8/5
f 334/8/5 330/8/5 333/8/5
f 335/2/5 332/2/5 331/2/5
f 336/2/5 332/2/5 335/2/5
f 337/2/5 334/2/5 333/2/5
f 338/2/5 334/2/5 337/2/5
f 339/8/5 336/8/5 335/8/5
f 340/8/5 336/8/5 339/8/5
f 342/8/5 338/8/5 337/8/5
f 343/2/5 340/2/5 339/2/5
f 344/2/5 340/2/5 343/2/5
f 346/3/5 342/3/5 341/3/5
f 347/8/5 338/8/5 342/8/5
f 347/3/5 342/3/5 346/3/5
f 348/8/5 344/8/5 343/8/5
f 348/3/5 345/3/5 344/3/5
f 349/3/5 345/3/5 348/3/5
f 350/4/5 347/4/5 346/4/5
f 351/8/5 338/8/5 347/8/5
f 351/4/5 347/4/5 350/4/5
f 352/8/5 338/8/5 351/8/5
f 353/8/5 348/8/5 343/8/5
f 354/4/5 349/4/5 348/4/5
f 354/8/5 348/8/5 353/8/5
f 355/4/5 349/4/5 354/4/5
f 356/3/5 351/3/5 350/3/5
f 357/3/5 351/3/5 356/3/5
f 358/3/5 355/3/5 354/3/5
f 359/3/5 355/3/5 358/3/5
f 364/2/5 361/2/5 360/2/5
f 365/2/5 361/2/5 364/2/5
f 366/2/5 363/2/5 362/2/5
f 367/2/5 363/2/5 366/2/5
f 368/2/6 369/2/6 371/2/6
f 371/2/6 369/2/6 372/2/6
f 372/2/6 369/2/6 373/2/6
f 373/2/6 369/2/6 374/2/6
f 370/8/6 371/8/6 376/8/6
f 371/2/6 372/2/6 377/2/6
f 376/8/6 371/8/6 377/8/6
f 377/2/6 372/2/6 378/2/6
f 373/8/6 374/8/6 379/8/6
f 374/2/6 375/2/6 380/2/6
f 379/8/6 374/8/6 380/8/6
f 380/2/6 375/2/6 381/2/6
f 376/2/6 377/2/6 382/2/6
f 377/8/6 378/8/6 383/8/6
f 382/2/6 377/2/6 383/2/6
f 383/8/6 378/8/6 384/8/6
f 379/2/6 380/2/6 385/2/6
f 380/8/6 381/8/6 386/8/6
f 385/2/6 380/2/6 386/2/6
f 386/8/6 381/8/6 387/8/6
f 382/8/6 383/8/6 388/8/6
f 383/2/6 384/2/6 389/2/6
f 388/8/6 383/8/6 389/8/6
f 389/2/6 384/2/6 390/2/6
f 385/8/6 386/8/6 391/8/6
f 386/2/6 387/2/6 392/2/6
f 391/8/6 386/8/6 392/8/6
f 392/2/6 387/2/6 393/2/6
f 388/2/6 389/2/6 395/2/6
f 389/8/6 390/8/6 396/8/6
f 395/2/6 389/2/6 396/2/6
f 396/8/6 390/8/6 397/8/6
f 391/2/6 392/2/6 398/2/6
f 392/8/6 393/8/6 399/8/6
f 398/2/6 392/2/6 399/2/6
f 399/8/6 393/8/6 400/8/6
f 394/3/6 395/3/6 402/3/6
f 395/8/6 396/8/6 403/8/6
f 402/3/6 395/3/6 403/3/6
f 396/2/6 397/2/6 404/2/6
f 403/8/6 396/8/6 404/8/6
f 404/2/6 397/2/6 405/2/6
f 398/8/6 399/8/6 406/8/6
f 399/2/6 400/2/6 407/2/6
f 406/8/6 399/8/6 407/8/6
f 400/3/6 401/3/6 408/3/6
f 407/2/6 400/2/6 408/2/6
f 408/3/6 401/3/6 409/3/6
f 410/3/6 411/3/6 414/3/6
f 414/3/6 411/3/6 415/3/6
f 412/3/6 413/3/6 416/3/6
f 416/3/6 413/3/6 417/3/6
f 418/2/6 419/2/6 424/2/6
f 419/2/6 420/2/6 424/2/6
f 424/2/6 420/2/6 425/2/6
f 422/2/6 423/2/6 426/2/6
f 421/2/6 422/2/6 426/2/6
f 426/2/6 423/2/6 427/2/6
f 428/3/6 429/3/6 430/3/6
f 430/3/6 429/3/6 431/3/6
f 430/4/6 431/4/6 432/4/6
f 432/4/6 431/4/6 433/4/6
f 432/3/6 433/3/6 434/3/6
f 434/3/6 433/3/6 435/3/6
f 434/4/6 435/4/6 436/4/6
f 436/4/6 435/4/6 437/4/6
f 436/3/6 437/3/6 440/3/6
f 440/3/6 437/3/6 441/3/6
f 438/2/6 439/2/6 444/2/6
f 444/2/6 439/2/6 445/2/6
f 440/4/6 441/4/6 447/4/6
f 447/4/6 441/4/6 448/4/6
f 442/2/6 443/2/6 450/2/6
f 450/2/6 443/2/6 451/2/6
f 445/8/6 446/8/6 452/8/6
f 446/2/6 447/2/6 453/2/6
f 452/8/6 446/8/6 453/8/6
f 447/3/6 448/3/6 454/3/6
f 453/2/6 447/2/6 454/2/6
f 448/2/6 449/2/6 455/2/6
f 454/3/6 448/3/6 455/3/6
f 449/8/6 450/8/6 456/8/6
f 455/2/6 449/2/6 456/2/6
f 456/8/6 450/8/6 457/8/6
f 452/2/6 453/2/6 458/2/6
f 453/8/6 454/8/6 459/8/6
f 458/2/6 453/2/6 459/2/6
f 454/4/6 455/4/6 460/4/6
f 459/8/6 454/8/6 460/8/6
f 455/8/6 456/8/6 461/8/6
f 460/4/6 455/4/6 461/4/6
f 456/2/6 457/2/6 462/2/6
f 461/8/6 456/8/6 462/8/6
f 462/2/6 457/2/6 463/2/6
f 460/3/6 461/3/6 464/3/6
f 464/3/6 461/3/6 465/3/6
f 466/1/6 467/1/6 472/1/6
f 467/5/6 468/5/6 473/5/6
f 472/1/6 467/1/6 473/1/6
f 473/5/6 468/5/6 474/5/6
f 469/5/6 470/5/6 475/5/6
f 470/1/6 471/1/6 476/1/6
f 475/5/6 470/5/6 476/5/6
f 476/1/6 471/1/6 477/1/6
